<svg width="25" height="25" viewBox="0 0 25 25" fill="none" xmlns="http://www.w3.org/2000/svg">
<path d="M22.3989 12.2102C22.3989 11.4411 21.7753 10.8176 21.0062 10.8176H14.0429V3.85427C14.0429 3.08512 13.4194 2.46161 12.6503 2.46161C11.8811 2.46161 11.2576 3.08512 11.2576 3.85427V10.8176H4.2943C3.52516 10.8176 2.90164 11.4411 2.90164 12.2102C2.90164 12.9794 3.52516 13.6029 4.2943 13.6029H11.2576V20.5662C11.2576 21.3353 11.8811 21.9588 12.6503 21.9588C13.4194 21.9588 14.0429 21.3353 14.0429 20.5662V13.6029H21.0062C21.7753 13.6029 22.3989 12.9794 22.3989 12.2102Z" fill="white"/>
</svg>
