<svg width="19" height="19" viewBox="0 0 19 19" fill="none" xmlns="http://www.w3.org/2000/svg">
<path d="M13.875 10.9091C13.6777 11.1003 13.5871 11.3767 13.632 11.6479L14.3091 15.395C14.3662 15.7126 14.2322 16.034 13.9664 16.2176C13.7059 16.408 13.3594 16.4308 13.0753 16.2785L9.70211 14.5192C9.58482 14.4567 9.45459 14.4232 9.3213 14.4194H9.11491C9.04331 14.4301 8.97325 14.4529 8.90927 14.488L5.53533 16.2557C5.36854 16.3394 5.17966 16.3691 4.99459 16.3394C4.54371 16.2541 4.24288 15.8246 4.31675 15.3714L4.99459 11.6243C5.03952 11.3509 4.94889 11.0729 4.75163 10.8786L2.00145 8.21299C1.77145 7.98983 1.69148 7.65472 1.79658 7.35236C1.89863 7.05076 2.15911 6.83065 2.47365 6.78115L6.25886 6.23202C6.54675 6.20232 6.79961 6.02715 6.92908 5.7682L8.59701 2.34854C8.63661 2.27238 8.68764 2.20231 8.74933 2.1429L8.81788 2.08959C8.85367 2.04998 8.8948 2.01723 8.9405 1.99058L9.02351 1.96011L9.15299 1.9068H9.47363C9.75999 1.9365 10.0121 2.10787 10.1438 2.36377L11.8339 5.7682C11.9557 6.01725 12.1926 6.19013 12.466 6.23202L16.2512 6.78115C16.5711 6.82685 16.8384 7.04771 16.9443 7.35236C17.044 7.65777 16.958 7.99288 16.7234 8.21299L13.875 10.9091Z" fill="#F6B76F"/>
</svg>
